<mxfile host="65bd71144e">
    <diagram id="3XdHDcJ4mFV7y5PHWOli" name="Page-1">
        <mxGraphModel dx="1214" dy="571" grid="0" gridSize="10" guides="1" tooltips="1" connect="1" arrows="1" fold="1" page="1" pageScale="1" pageWidth="850" pageHeight="1100" background="#000019" math="0" shadow="0">
            <root>
                <mxCell id="0"/>
                <mxCell id="1" parent="0"/>
                <mxCell id="2" value="EchoShield" style="swimlane;startSize=20;horizontal=1;containerType=tree;fontSize=13;fillStyle=solid;swimlaneFillColor=none;" parent="1" vertex="1">
                    <mxGeometry x="60" y="80" width="740" height="360" as="geometry"/>
                </mxCell>
                <mxCell id="3" value="" style="edgeStyle=elbowEdgeStyle;elbow=vertical;sourcePerimeterSpacing=0;targetPerimeterSpacing=0;startArrow=none;endArrow=none;rounded=0;curved=0;" parent="2" source="4" target="5" edge="1">
                    <mxGeometry relative="1" as="geometry"/>
                </mxCell>
                <mxCell id="4" value="Sound Input" style="whiteSpace=wrap;html=1;treeFolding=1;treeMoving=1;newEdgeStyle={&quot;edgeStyle&quot;:&quot;elbowEdgeStyle&quot;,&quot;startArrow&quot;:&quot;none&quot;,&quot;endArrow&quot;:&quot;none&quot;};fillColor=none;strokeColor=#FF8000;" parent="2" vertex="1">
                    <mxGeometry x="10" y="40" width="120" height="40" as="geometry"/>
                </mxCell>
                <mxCell id="5" value="EchoShield" style="whiteSpace=wrap;html=1;treeFolding=1;treeMoving=1;newEdgeStyle={&quot;edgeStyle&quot;:&quot;elbowEdgeStyle&quot;,&quot;startArrow&quot;:&quot;none&quot;,&quot;endArrow&quot;:&quot;none&quot;};strokeColor=#33FFFF;" parent="2" vertex="1">
                    <mxGeometry x="10" y="140" width="120" height="40" as="geometry"/>
                </mxCell>
                <mxCell id="6" value="" style="edgeStyle=elbowEdgeStyle;elbow=vertical;sourcePerimeterSpacing=0;targetPerimeterSpacing=0;startArrow=none;endArrow=none;rounded=0;curved=0;" parent="2" source="5" target="7" edge="1">
                    <mxGeometry relative="1" as="geometry">
                        <mxPoint x="200" y="130" as="sourcePoint"/>
                    </mxGeometry>
                </mxCell>
                <mxCell id="7" value="Sound Output" style="whiteSpace=wrap;html=1;treeFolding=1;treeMoving=1;newEdgeStyle={&quot;edgeStyle&quot;:&quot;elbowEdgeStyle&quot;,&quot;startArrow&quot;:&quot;none&quot;,&quot;endArrow&quot;:&quot;none&quot;};strokeColor=#FF8000;" parent="2" vertex="1">
                    <mxGeometry x="10" y="230" width="120" height="40" as="geometry"/>
                </mxCell>
                <mxCell id="16" value="Sound Analyse" style="rounded=0;whiteSpace=wrap;html=1;strokeColor=#009999;fillStyle=solid;fillColor=#19151F;" parent="2" vertex="1">
                    <mxGeometry x="260" y="50" width="115" height="60" as="geometry"/>
                </mxCell>
                <mxCell id="19" value="" style="endArrow=classic;html=1;entryX=0;entryY=0.5;entryDx=0;entryDy=0;exitX=1;exitY=0.5;exitDx=0;exitDy=0;strokeColor=#EBEBEB;shadow=0;fillColor=#f5f5f5;gradientColor=#b3b3b3;" parent="2" source="5" target="16" edge="1">
                    <mxGeometry width="50" height="50" relative="1" as="geometry">
                        <mxPoint x="130" y="150" as="sourcePoint"/>
                        <mxPoint x="180" y="100" as="targetPoint"/>
                        <Array as="points">
                            <mxPoint x="160" y="160"/>
                            <mxPoint x="160" y="80"/>
                        </Array>
                    </mxGeometry>
                </mxCell>
                <mxCell id="35" value="Ki Verarbeitung" style="rounded=0;whiteSpace=wrap;html=1;strokeColor=#009999;fillColor=#19151F;fillStyle=solid;" parent="2" vertex="1">
                    <mxGeometry x="260" y="160" width="115" height="60" as="geometry"/>
                </mxCell>
                <mxCell id="37" value="" style="edgeStyle=none;html=1;strokeColor=#EBEBEB;shadow=0;fillColor=#f5f5f5;gradientColor=#b3b3b3;" parent="2" source="35" target="38" edge="1">
                    <mxGeometry relative="1" as="geometry"/>
                </mxCell>
                <mxCell id="38" value="Equalizer" style="rounded=0;whiteSpace=wrap;html=1;strokeColor=#009999;" parent="2" vertex="1">
                    <mxGeometry x="260" y="260" width="115" height="60" as="geometry"/>
                </mxCell>
                <mxCell id="39" value="" style="endArrow=classic;html=1;entryX=0.5;entryY=0;entryDx=0;entryDy=0;" parent="2" target="35" edge="1">
                    <mxGeometry width="50" height="50" relative="1" as="geometry">
                        <mxPoint x="318" y="110" as="sourcePoint"/>
                        <mxPoint x="370" y="60" as="targetPoint"/>
                    </mxGeometry>
                </mxCell>
                <mxCell id="20" value="" style="endArrow=classic;html=1;entryX=1;entryY=0.5;entryDx=0;entryDy=0;exitX=0;exitY=0.5;exitDx=0;exitDy=0;strokeColor=#EBEBEB;shadow=0;fillColor=#f5f5f5;gradientColor=#b3b3b3;" parent="2" source="38" target="5" edge="1">
                    <mxGeometry width="50" height="50" relative="1" as="geometry">
                        <mxPoint x="260" y="320" as="sourcePoint"/>
                        <mxPoint x="210" y="180" as="targetPoint"/>
                        <Array as="points">
                            <mxPoint x="160" y="290"/>
                            <mxPoint x="160" y="160"/>
                        </Array>
                    </mxGeometry>
                </mxCell>
                <mxCell id="40" value="Ki Verarbeitung" style="swimlane;whiteSpace=wrap;html=1;movable=1;resizable=1;rotatable=1;deletable=1;editable=1;connectable=1;strokeColor=#33FFFF;" parent="2" vertex="1">
                    <mxGeometry x="490" y="110" width="190" height="160" as="geometry"/>
                </mxCell>
                <mxCell id="42" value="F1" style="rounded=1;whiteSpace=wrap;html=1;movable=1;resizable=1;rotatable=1;deletable=1;editable=1;connectable=1;glass=0;shadow=1;fillColor=none;strokeColor=#009999;fillStyle=zigzag-line;" parent="40" vertex="1">
                    <mxGeometry x="10" y="30" width="20" height="20" as="geometry"/>
                </mxCell>
                <mxCell id="43" value="F2" style="rounded=1;whiteSpace=wrap;html=1;movable=1;resizable=1;rotatable=1;deletable=1;editable=1;connectable=1;fillColor=none;strokeColor=#009999;glass=0;shadow=1;fillStyle=zigzag-line;" parent="40" vertex="1">
                    <mxGeometry x="40" y="30" width="20" height="20" as="geometry"/>
                </mxCell>
                <mxCell id="44" value="F3" style="rounded=1;whiteSpace=wrap;html=1;movable=1;resizable=1;rotatable=1;deletable=1;editable=1;connectable=1;fillColor=none;strokeColor=#009999;glass=0;shadow=1;fillStyle=zigzag-line;" parent="40" vertex="1">
                    <mxGeometry x="70" y="30" width="20" height="20" as="geometry"/>
                </mxCell>
                <mxCell id="45" value="F4" style="rounded=1;whiteSpace=wrap;html=1;movable=1;resizable=1;rotatable=1;deletable=1;editable=1;connectable=1;fillColor=none;strokeColor=#009999;glass=0;shadow=1;fillStyle=zigzag-line;" parent="40" vertex="1">
                    <mxGeometry x="100" y="30" width="20" height="20" as="geometry"/>
                </mxCell>
                <mxCell id="46" value="F5" style="rounded=1;whiteSpace=wrap;html=1;movable=1;resizable=1;rotatable=1;deletable=1;editable=1;connectable=1;fillColor=none;strokeColor=#009999;glass=0;shadow=1;fillStyle=zigzag-line;" parent="40" vertex="1">
                    <mxGeometry x="130" y="30" width="20" height="20" as="geometry"/>
                </mxCell>
                <mxCell id="47" value="FN" style="rounded=1;whiteSpace=wrap;html=1;movable=1;resizable=1;rotatable=1;deletable=1;editable=1;connectable=1;fillColor=none;strokeColor=#009999;glass=0;shadow=1;fillStyle=zigzag-line;" parent="40" vertex="1">
                    <mxGeometry x="160" y="30" width="20" height="20" as="geometry"/>
                </mxCell>
                <mxCell id="49" value="Analyse ob RÃ¼ckkopplung" style="rounded=1;whiteSpace=wrap;html=1;movable=1;resizable=1;rotatable=1;deletable=1;editable=1;connectable=1;" parent="40" vertex="1">
                    <mxGeometry x="10" y="80" width="170" height="30" as="geometry"/>
                </mxCell>
                <mxCell id="51" value="" style="endArrow=classic;html=1;exitX=0.5;exitY=1;exitDx=0;exitDy=0;movable=1;resizable=1;rotatable=1;deletable=1;editable=1;connectable=1;" parent="40" source="42" edge="1">
                    <mxGeometry width="50" height="50" relative="1" as="geometry">
                        <mxPoint x="-10" y="270" as="sourcePoint"/>
                        <mxPoint x="20" y="80" as="targetPoint"/>
                    </mxGeometry>
                </mxCell>
                <mxCell id="52" value="" style="endArrow=classic;html=1;exitX=0.5;exitY=1;exitDx=0;exitDy=0;movable=1;resizable=1;rotatable=1;deletable=1;editable=1;connectable=1;" parent="40" source="43" edge="1">
                    <mxGeometry width="50" height="50" relative="1" as="geometry">
                        <mxPoint x="49.85000000000002" y="50" as="sourcePoint"/>
                        <mxPoint x="49.85000000000002" y="80" as="targetPoint"/>
                    </mxGeometry>
                </mxCell>
                <mxCell id="73" value="" style="endArrow=classic;html=1;exitX=1;exitY=0.5;exitDx=0;exitDy=0;entryX=0;entryY=0.25;entryDx=0;entryDy=0;strokeColor=#EBEBEB;rounded=1;jumpStyle=none;shadow=0;fillColor=#f5f5f5;gradientColor=#b3b3b3;" parent="2" source="35" target="40" edge="1">
                    <mxGeometry width="50" height="50" relative="1" as="geometry">
                        <mxPoint x="380" y="190" as="sourcePoint"/>
                        <mxPoint x="430" y="140" as="targetPoint"/>
                        <Array as="points">
                            <mxPoint x="420" y="190"/>
                            <mxPoint x="420" y="150"/>
                        </Array>
                    </mxGeometry>
                </mxCell>
                <mxCell id="74" value="" style="endArrow=classic;html=1;exitX=0;exitY=0.75;exitDx=0;exitDy=0;entryX=1;entryY=0.5;entryDx=0;entryDy=0;strokeColor=#EBEBEB;shadow=0;fillColor=#f5f5f5;gradientColor=#b3b3b3;" parent="2" source="40" target="35" edge="1">
                    <mxGeometry width="50" height="50" relative="1" as="geometry">
                        <mxPoint x="420" y="140" as="sourcePoint"/>
                        <mxPoint x="470" y="90" as="targetPoint"/>
                        <Array as="points">
                            <mxPoint x="420" y="230"/>
                            <mxPoint x="420" y="190"/>
                        </Array>
                    </mxGeometry>
                </mxCell>
                <mxCell id="53" value="" style="endArrow=classic;html=1;exitX=0.5;exitY=1;exitDx=0;exitDy=0;movable=1;resizable=1;rotatable=1;deletable=1;editable=1;connectable=1;" parent="1" edge="1">
                    <mxGeometry width="50" height="50" relative="1" as="geometry">
                        <mxPoint x="630.0000000000001" y="240" as="sourcePoint"/>
                        <mxPoint x="629.8499999999999" y="270" as="targetPoint"/>
                    </mxGeometry>
                </mxCell>
                <mxCell id="54" value="" style="endArrow=classic;html=1;exitX=0.5;exitY=1;exitDx=0;exitDy=0;movable=1;resizable=1;rotatable=1;deletable=1;editable=1;connectable=1;" parent="1" edge="1">
                    <mxGeometry width="50" height="50" relative="1" as="geometry">
                        <mxPoint x="660.0000000000001" y="240" as="sourcePoint"/>
                        <mxPoint x="659.8499999999999" y="270" as="targetPoint"/>
                    </mxGeometry>
                </mxCell>
                <mxCell id="55" value="" style="endArrow=classic;html=1;exitX=0.5;exitY=1;exitDx=0;exitDy=0;movable=1;resizable=1;rotatable=1;deletable=1;editable=1;connectable=1;" parent="1" edge="1">
                    <mxGeometry width="50" height="50" relative="1" as="geometry">
                        <mxPoint x="690.0000000000001" y="240" as="sourcePoint"/>
                        <mxPoint x="689.8499999999999" y="270" as="targetPoint"/>
                    </mxGeometry>
                </mxCell>
                <mxCell id="56" value="" style="endArrow=classic;html=1;exitX=0.5;exitY=1;exitDx=0;exitDy=0;movable=1;resizable=1;rotatable=1;deletable=1;editable=1;connectable=1;" parent="1" edge="1">
                    <mxGeometry width="50" height="50" relative="1" as="geometry">
                        <mxPoint x="720.0000000000001" y="240" as="sourcePoint"/>
                        <mxPoint x="719.85" y="270" as="targetPoint"/>
                    </mxGeometry>
                </mxCell>
                <mxCell id="61" value="0/1" style="rounded=1;whiteSpace=wrap;html=1;movable=1;resizable=1;rotatable=1;deletable=1;editable=1;connectable=1;fillColor=none;strokeColor=#009999;glass=0;shadow=1;fillStyle=zigzag-line;" parent="1" vertex="1">
                    <mxGeometry x="560" y="320" width="20" height="20" as="geometry"/>
                </mxCell>
                <mxCell id="62" value="0/1" style="rounded=1;whiteSpace=wrap;html=1;movable=1;resizable=1;rotatable=1;deletable=1;editable=1;connectable=1;fillColor=none;strokeColor=#009999;glass=0;shadow=1;fillStyle=zigzag-line;" parent="1" vertex="1">
                    <mxGeometry x="590" y="320" width="20" height="20" as="geometry"/>
                </mxCell>
                <mxCell id="63" value="0/1" style="rounded=1;whiteSpace=wrap;html=1;movable=1;resizable=1;rotatable=1;deletable=1;editable=1;connectable=1;fillColor=none;strokeColor=#009999;glass=0;shadow=1;fillStyle=zigzag-line;" parent="1" vertex="1">
                    <mxGeometry x="620" y="320" width="20" height="20" as="geometry"/>
                </mxCell>
                <mxCell id="64" value="0/1" style="rounded=1;whiteSpace=wrap;html=1;movable=1;resizable=1;rotatable=1;deletable=1;editable=1;connectable=1;fillColor=none;strokeColor=#009999;glass=0;shadow=1;fillStyle=zigzag-line;" parent="1" vertex="1">
                    <mxGeometry x="650" y="320" width="20" height="20" as="geometry"/>
                </mxCell>
                <mxCell id="65" value="0/1" style="rounded=1;whiteSpace=wrap;html=1;movable=1;resizable=1;rotatable=1;deletable=1;editable=1;connectable=1;fillColor=none;strokeColor=#009999;glass=0;shadow=1;fillStyle=zigzag-line;" parent="1" vertex="1">
                    <mxGeometry x="680" y="320" width="20" height="20" as="geometry"/>
                </mxCell>
                <mxCell id="66" value="0/1" style="rounded=1;whiteSpace=wrap;html=1;movable=1;resizable=1;rotatable=1;deletable=1;editable=1;connectable=1;fillColor=none;strokeColor=#009999;glass=0;shadow=1;fillStyle=zigzag-line;" parent="1" vertex="1">
                    <mxGeometry x="710" y="320" width="20" height="20" as="geometry"/>
                </mxCell>
                <mxCell id="67" value="" style="endArrow=classic;html=1;movable=1;resizable=1;rotatable=1;deletable=1;editable=1;connectable=1;" parent="1" edge="1">
                    <mxGeometry width="50" height="50" relative="1" as="geometry">
                        <mxPoint x="570" y="300" as="sourcePoint"/>
                        <mxPoint x="570" y="320" as="targetPoint"/>
                    </mxGeometry>
                </mxCell>
                <mxCell id="68" value="" style="endArrow=classic;html=1;movable=1;resizable=1;rotatable=1;deletable=1;editable=1;connectable=1;" parent="1" edge="1">
                    <mxGeometry width="50" height="50" relative="1" as="geometry">
                        <mxPoint x="600" y="300" as="sourcePoint"/>
                        <mxPoint x="599.8499999999999" y="320" as="targetPoint"/>
                    </mxGeometry>
                </mxCell>
                <mxCell id="69" value="" style="endArrow=classic;html=1;movable=1;resizable=1;rotatable=1;deletable=1;editable=1;connectable=1;" parent="1" edge="1">
                    <mxGeometry width="50" height="50" relative="1" as="geometry">
                        <mxPoint x="630" y="300" as="sourcePoint"/>
                        <mxPoint x="629.8499999999999" y="320" as="targetPoint"/>
                    </mxGeometry>
                </mxCell>
                <mxCell id="70" value="" style="endArrow=classic;html=1;movable=1;resizable=1;rotatable=1;deletable=1;editable=1;connectable=1;" parent="1" edge="1">
                    <mxGeometry width="50" height="50" relative="1" as="geometry">
                        <mxPoint x="660" y="300" as="sourcePoint"/>
                        <mxPoint x="659.8499999999999" y="320" as="targetPoint"/>
                    </mxGeometry>
                </mxCell>
                <mxCell id="71" value="" style="endArrow=classic;html=1;movable=1;resizable=1;rotatable=1;deletable=1;editable=1;connectable=1;" parent="1" edge="1">
                    <mxGeometry width="50" height="50" relative="1" as="geometry">
                        <mxPoint x="690" y="300" as="sourcePoint"/>
                        <mxPoint x="689.8499999999999" y="320" as="targetPoint"/>
                    </mxGeometry>
                </mxCell>
                <mxCell id="72" value="" style="endArrow=classic;html=1;movable=1;resizable=1;rotatable=1;deletable=1;editable=1;connectable=1;" parent="1" edge="1">
                    <mxGeometry width="50" height="50" relative="1" as="geometry">
                        <mxPoint x="720" y="300" as="sourcePoint"/>
                        <mxPoint x="719.8499999999999" y="320" as="targetPoint"/>
                    </mxGeometry>
                </mxCell>
            </root>
        </mxGraphModel>
    </diagram>
</mxfile>